<?xml version="1.0" encoding="utf-8"?>
<!-- Generator: Adobe Illustrator 16.0.0, SVG Export Plug-In . SVG Version: 6.00 Build 0)  -->
<!DOCTYPE svg PUBLIC "-//W3C//DTD SVG 1.1//EN" "http://www.w3.org/Graphics/SVG/1.1/DTD/svg11.dtd">
<svg version="1.1" id="Layer_1" xmlns="http://www.w3.org/2000/svg" xmlns:xlink="http://www.w3.org/1999/xlink" x="0px" y="0px"
	 width="485.976px" height="175.491px" viewBox="0 0 485.976 175.491" enable-background="new 0 0 485.976 175.491"
	 xml:space="preserve">
<g>
	<path fill="#FCFAFC" d="M477.449,163.999H13.238V11.423h464.21V163.999z M19.238,157.999h452.21V17.423H19.238V157.999z"/>
</g>
<g>
	<g>
		<path fill="#FCFAFC" d="M71.141,141.492c-8.517,0-15.299-7.255-15.299-17.979V51.91c0-10.567,6.782-17.979,15.299-17.979
			s14.667,7.413,14.667,17.979v20.03h-8.201V50.017c0-3.47-2.208-6.466-5.993-6.466c-3.942,0-6.15,2.997-6.15,6.466v75.388
			c0,3.627,2.208,6.466,6.15,6.466c3.785,0,5.993-2.839,5.993-6.466v-22.08h8.201v20.188
			C85.808,134.237,79.658,141.492,71.141,141.492z"/>
	</g>
	<g>
		<path fill="#FCFAFC" d="M101.737,140.23V35.192h25.55v8.99H111.2v37.536h11.671v8.99H111.2v40.533h16.087v8.99H101.737z"/>
	</g>
	<g>
		<path fill="#FCFAFC" d="M142.427,140.23V35.192h9.463v95.575h15.456v9.463H142.427z"/>
	</g>
	<g>
		<path fill="#FCFAFC" d="M201.571,140.23l-1.577-21.292h-10.409l-2.208,21.292h-8.675l11.829-105.038h9.936l11.04,105.038H201.571z
			 M195.419,60.899l-4.889,48.734h8.674L195.419,60.899z"/>
	</g>
	<g>
		<path fill="#FCFAFC" d="M241.157,140.23h-15.771V35.192h15.771c10.567,0,14.826,6.624,14.826,20.661v63.717
			C255.983,133.606,251.724,140.23,241.157,140.23z M246.52,54.118c0-6.782-1.42-9.305-5.363-9.305h-6.15v85.797h6.15
			c3.943,0,5.363-2.523,5.363-9.147V54.118z"/>
	</g>
	<g>
		<path fill="#FCFAFC" d="M287.051,141.492c-8.516,0-15.613-7.255-15.613-17.979V51.91c0-10.567,7.098-17.979,15.613-17.979
			c8.518,0,15.614,7.413,15.614,17.979v71.603C302.666,134.237,295.569,141.492,287.051,141.492z M293.203,50.017
			c0-3.47-2.366-6.466-6.151-6.466c-3.942,0-6.15,2.997-6.15,6.466v75.388c0,3.627,2.208,6.466,6.15,6.466
			c3.785,0,6.151-2.839,6.151-6.466V50.017z"/>
	</g>
	<g>
		<path fill="#FCFAFC" d="M347.772,141.019c-5.52,0-7.885-2.05-7.885-9.778v-30.597c0-4.258-2.209-6.939-5.521-6.939h-5.678v46.526
			h-9.62V35.192h15.929c6.151,0,13.879,3.154,13.879,16.56v24.446c0,6.309-1.577,11.04-6.466,13.248
			c4.889,2.208,6.781,6.939,6.781,13.09v28.546c0,2.839,0.315,4.101,2.051,4.101v5.835H347.772z M339.414,50.806
			c0-4.258-1.893-5.993-4.573-5.993h-6.151v39.744h5.362c3.154,0,5.362-2.681,5.362-6.939V50.806z"/>
	</g>
	<g>
		<path fill="#FCFAFC" d="M365.594,140.23V35.192h25.549v8.99h-16.086v37.536h11.67v8.99h-11.67v40.533h16.086v8.99H365.594z"/>
	</g>
	<g>
		<path fill="#FCFAFC" d="M419.231,141.492c-9.777,0-15.613-7.255-15.613-17.822v-14.194h9.147v14.667
			c0,5.205,2.523,9.147,6.151,9.147c4.889,0,6.781-3.312,6.781-9.147c0-10.567-3.627-20.345-9.305-32.174
			c-5.047-10.409-11.986-26.338-11.986-37.221c0-12.144,4.73-20.818,15.929-20.818c8.675,0,14.194,7.255,14.194,17.979v15.298h-8.99
			V52.225c0-6.309-1.893-9.305-5.361-9.305c-4.102,0-6.625,2.681-6.625,8.359c0,12.302,3.785,20.503,10.252,34.066
			c5.993,12.775,11.04,24.919,11.04,35.959C434.845,137.707,425.54,141.492,419.231,141.492z"/>
	</g>
</g>
</svg>
